<?xml version="1.0" encoding="utf-8"?>
<!-- Generator: Adobe Illustrator 26.0.1, SVG Export Plug-In . SVG Version: 6.00 Build 0)  -->
<svg version="1.1" id="图层_1" xmlns="http://www.w3.org/2000/svg" xmlns:xlink="http://www.w3.org/1999/xlink" x="0px" y="0px"
	 viewBox="0 0 328 342" style="enable-background:new 0 0 328 342;" xml:space="preserve">
<style type="text/css">
	.st0{fill:none;}
	.st1{fill:#FCFCFC;}
</style>
<g>
	<path class="st0" d="M93.74,93.25l-0.08,0c2.37,8.94,3.65,18.23,3.72,27.75l0.05,0C97.35,111.46,96.02,102.18,93.74,93.25z"/>
	<path class="st0" d="M103.72,123.86c-0.19,9.21-1.68,18.07-4.19,26.55l23.64-0.54c-2.38-8.18-3.8-16.71-4.02-25.56L103.72,123.86z"
		/>
	<path class="st0" d="M119.13,120.5c0.13-9.06,1.51-17.88,3.9-26.39l-23.4-0.69c2.54,8.83,4.01,18,4.11,27.43L119.13,120.5z"/>
	<path class="st0" d="M93.66,150.55L93.66,150.55c0.05-0.19,0.11-0.39,0.16-0.58C93.76,150.16,93.71,150.36,93.66,150.55z"/>
	<path class="st0" d="M128.29,146.85c0.21,0.93,0.43,1.85,0.66,2.77C128.72,148.7,128.5,147.78,128.29,146.85z"/>
	<path class="st0" d="M93.91,149.62c0.23-0.91,0.45-1.83,0.66-2.75C94.36,147.79,94.14,148.71,93.91,149.62z"/>
	<path class="st0" d="M97.37,123.67c-0.12,7.7-1.02,15.24-2.65,22.57c1.63-7.26,2.58-14.8,2.7-22.57L97.37,123.67z"/>
	<path class="st0" d="M128.15,146.25c-1.58-7.07-2.47-14.34-2.64-21.75l-0.05,0C125.64,131.99,126.58,139.24,128.15,146.25z"/>
	<path class="st0" d="M128.85,94.29c-2.07,8.41-3.29,17.12-3.42,26.07l0.05,0c0.12-8.93,1.29-17.65,3.44-26.07L128.85,94.29z"/>
	<path d="M22.76,91.17l63.44,1.86c-0.25-1.1-0.51-2.2-0.78-3.3L22.76,91.17z"/>
	<path d="M123.03,94.12c0.5-1.77,1.05-3.53,1.63-5.27l-26.25,0.6c0.43,1.32,0.84,2.65,1.23,3.99L123.03,94.12z"/>
	<path d="M93.74,93.25c-0.32-1.24-0.65-2.46-1-3.68l-0.12,0c0.37,1.22,0.72,2.45,1.04,3.68L93.74,93.25z"/>
	<path d="M128.92,94.29c0.48-1.88,1.01-3.74,1.58-5.58l-0.14,0c-0.54,1.84-1.06,3.7-1.52,5.58L128.92,94.29z"/>
	<path d="M276.96,98.64c4.59,0.13,8.4-2.69,8.4-6.22c0-3.97-4.26-7.15-9.42-7.03l-138.19,3.16c-0.52,1.97-0.99,3.96-1.42,5.96
		L276.96,98.64z"/>
	<path d="M119.13,120.5l-15.39,0.35c0,0.35,0.02,0.69,0.02,1.04c0,0.66-0.02,1.31-0.04,1.96l15.42,0.45
		c-0.02-0.8-0.04-1.61-0.04-2.42C119.1,121.43,119.12,120.97,119.13,120.5z"/>
	<path d="M125.41,121.9c0,0.87,0.02,1.74,0.04,2.6l0.05,0c-0.02-0.87-0.04-1.73-0.04-2.6c0-0.52,0.02-1.03,0.02-1.54l-0.05,0
		C125.43,120.87,125.41,121.38,125.41,121.9z"/>
	<path d="M97.45,121.9c0-0.3-0.01-0.6-0.01-0.9l-0.05,0c0,0.3,0.01,0.6,0.01,0.9c0,0.59-0.02,1.18-0.03,1.78l0.05,0
		C97.43,123.08,97.45,122.49,97.45,121.9z"/>
	<path d="M299.34,116.38l-165.85,3.79c-0.01,0.57-0.02,1.15-0.02,1.72c0,0.95,0.02,1.89,0.04,2.84l166.86,4.9
		c4.59,0.13,8.4-2.69,8.4-6.22C308.76,119.45,304.5,116.27,299.34,116.38z"/>
	<path d="M89.39,121.18l-43.23,0.99l43.22,1.27c0.01-0.51,0.02-1.03,0.02-1.54C89.4,121.66,89.39,121.42,89.39,121.18z"/>
	<path d="M130.56,155.34l0.03,0c-0.56-1.78-1.07-3.57-1.54-5.38C129.51,151.77,130.01,153.56,130.56,155.34z"/>
	<path d="M22.76,152.17l62.67,1.84c0.27-1.09,0.54-2.19,0.78-3.29L22.76,152.17z"/>
	<path d="M276.96,159.64c4.59,0.13,8.4-2.69,8.4-6.22c0-3.97-4.26-7.15-9.42-7.03l-139.55,3.19c0.43,2.01,0.92,4,1.44,5.98
		L276.96,159.64z"/>
	<path d="M99.53,150.41c-0.39,1.33-0.82,2.66-1.26,3.97l26.58,0.78c-0.6-1.75-1.17-3.51-1.69-5.29L99.53,150.41z"/>
	<path d="M93.66,150.55c-0.33,1.23-0.67,2.45-1.04,3.67l0.02,0C92.99,153.01,93.33,151.78,93.66,150.55L93.66,150.55z"/>
	<path d="M47.1,25.17c18.46,17.19,32,39.47,38.32,64.57l7.2-0.16C85.08,64.55,69.01,42.32,47.1,25.17z"/>
	<path d="M47.1,218.62c21.91-17.15,37.98-39.38,45.51-64.4l-7.19-0.21C79.12,179.12,65.57,201.42,47.1,218.62z"/>
	<path d="M93.66,93.25l-7.46-0.22c2.04,9.07,3.13,18.49,3.19,28.15l8-0.18C97.31,111.48,96.02,102.2,93.66,93.25z"/>
	<path d="M93.81,149.97c0.03-0.12,0.06-0.23,0.09-0.35c0.23-0.91,0.45-1.83,0.66-2.75c0.05-0.21,0.1-0.41,0.15-0.62
		c1.64-7.33,2.53-14.88,2.65-22.57l-7.99-0.23c-0.11,9.36-1.19,18.48-3.16,27.28l7.44-0.17C93.71,150.36,93.76,150.16,93.81,149.97z
		"/>
	<path d="M92.61,89.57l-7.2,0.16c0.28,1.09,0.54,2.19,0.78,3.3l7.46,0.22C93.33,92.02,92.98,90.79,92.61,89.57z"/>
	<path d="M97.4,121.9c0-0.3-0.01-0.6-0.01-0.9l-8,0.18c0,0.24,0.01,0.48,0.01,0.72c0,0.52-0.01,1.03-0.02,1.54l7.99,0.23
		C97.38,123.08,97.4,122.49,97.4,121.9z"/>
	<path d="M86.21,150.72c-0.25,1.1-0.51,2.2-0.78,3.29l7.19,0.21c0.37-1.22,0.71-2.44,1.04-3.67L86.21,150.72z"/>
	<path class="st1" d="M94.57,146.87c0.05-0.21,0.1-0.42,0.15-0.62C94.67,146.46,94.61,146.66,94.57,146.87z"/>
	<path class="st1" d="M93.81,149.97c0.03-0.12,0.06-0.23,0.09-0.35C93.88,149.74,93.84,149.85,93.81,149.97z"/>
	<path d="M175.76,218.62c-18.1-16.85-31.46-38.59-37.93-63.07l-7.24-0.21C138.26,179.91,154.18,201.73,175.76,218.62z"/>
	<path d="M175.76,25.17c-21.65,16.96-37.61,38.86-45.25,63.54l7.24-0.17C144.19,63.94,157.59,42.09,175.76,25.17z"/>
	<path d="M128.15,146.25c0.05,0.2,0.1,0.4,0.14,0.6c0.21,0.93,0.43,1.85,0.66,2.77c0.01,0.04,0.02,0.08,0.03,0.12l7.4-0.17
		c-1.72-8.03-2.71-16.34-2.89-24.84l-8-0.23C125.68,131.91,126.57,139.18,128.15,146.25z"/>
	<path d="M125.49,120.36l8-0.18c0.11-8.79,1.08-17.37,2.84-25.67l-7.41-0.22C126.78,102.71,125.61,111.43,125.49,120.36z"/>
	<path d="M136.33,94.51c0.43-2.01,0.9-3.99,1.42-5.96l-7.24,0.17c-0.57,1.85-1.11,3.71-1.58,5.58L136.33,94.51z"/>
	<path d="M133.48,120.17l-8,0.18c-0.01,0.51-0.02,1.03-0.02,1.54c0,0.87,0.02,1.74,0.04,2.6l8,0.23c-0.02-0.94-0.04-1.89-0.04-2.84
		C133.46,121.32,133.48,120.75,133.48,120.17z"/>
	<path d="M129.04,149.96c0.47,1.81,0.99,3.6,1.54,5.38l7.24,0.21c-0.52-1.98-1.01-3.97-1.44-5.98l-7.4,0.17
		C129,149.82,129.02,149.89,129.04,149.96z"/>
	<path class="st1" d="M128.98,149.74c-0.01-0.04-0.02-0.08-0.03-0.12C128.96,149.66,128.97,149.7,128.98,149.74L128.98,149.74z"/>
	<path class="st1" d="M128.15,146.25c0.04,0.2,0.1,0.4,0.14,0.6C128.24,146.65,128.19,146.45,128.15,146.25z"/>
	<path class="st1" d="M129.04,149.96c-0.02-0.07-0.04-0.15-0.06-0.22l0,0C129,149.82,129.02,149.89,129.04,149.96z"/>
</g>
<g>
	<path d="M55.42,290.41l1.44-8.73H27.71l3.64-25.51h42.97l-1.44,12.37H58.31l0.76-5.09H45.17l-2.2,10.93h29.15l-2.88,19.66
		c0,0.71-0.17,1.38-0.49,2.01c-0.33,0.63-0.77,1.18-1.33,1.63c-0.56,0.46-1.18,0.81-1.86,1.06c-0.68,0.25-1.4,0.38-2.16,0.38H25.51
		l1.44-11.69l2.2,2.96H55.42z"/>
	<path d="M139.84,256.17l-2.88,23.31c-0.41,1.47-1.2,2.68-2.39,3.64c-1.19,0.96-2.34,1.44-3.45,1.44H105.6l-2.2,14.58H89.58
		l5.09-40.84l-2.2-2.13H139.84z M108.56,263.46l-1.52,13.82h15.33l2.2-13.82H108.56z"/>
	<path d="M175.52,256.17l-6.6,42.97H155.1l5.09-40.08l-2.2-2.88H175.52z"/>
	<path d="M193.66,298.76c-0.61-0.25-1.13-0.61-1.56-1.06c-0.43-0.46-0.72-1-0.87-1.63c-0.15-0.63-0.13-1.3,0.08-2.01l5.09-37.88
		h45.93l-0.76,7.29h-32.04l-3.64,28.39h28.39l3.64-2.89l-1.44,10.17h-40.84C194.93,299.14,194.27,299.01,193.66,298.76z"/>
	<path d="M301.54,256.17l5.77,42.97h-13.06l-1.52-11.69h-18.22l-5.09,11.69h-12.37l16.78-40.84l-2.2-2.13H301.54z M284.76,263.46
		l-7.29,16.7h14.58l-2.2-16.7H284.76z"/>
</g>
</svg>
